<?xml version="1.0" encoding="utf-8"?>
<!-- Generator: Adobe Illustrator 27.7.0, SVG Export Plug-In . SVG Version: 6.00 Build 0)  -->
<svg version="1.1" id="Capa_1" xmlns="http://www.w3.org/2000/svg" xmlns:xlink="http://www.w3.org/1999/xlink" x="0px" y="0px"
	 viewBox="0 0 1080 1080" style="enable-background:new 0 0 1080 1080;" xml:space="preserve">
<style type="text/css">
	.st0{fill:#F2AD58;}
	.st1{fill:#B46D29;}
	.st2{fill:#FFD451;}
	.st3{fill:#FECD4F;}
	.st4{fill:#D83636;}
	.st5{fill:#208E3F;}
</style>
<g>
	<path class="st0" d="M853.85,417.18c0-1.12-0.56-1.96-1.19-2.86c-3.72-5.29-7.8-10.27-11.98-15.21
		c-6.44-7.6-13.12-14.99-20.27-21.89c-6.46-6.24-13.01-12.42-19.85-18.28c-6.51-5.58-13.07-11.09-19.75-16.45
		c-6.52-5.24-13.22-10.24-20-15.14c-8.08-5.83-16.32-11.43-24.66-16.87c-11.36-7.41-23-14.37-34.73-21.17
		c-17.16-9.96-34.88-18.84-52.71-27.5c-10.86-5.28-21.95-10.08-33.06-14.82c-10.62-4.54-21.35-8.82-32.1-13.03
		c-7.1-2.78-14.3-5.32-21.46-7.95c-11.95-4.38-24.03-8.38-36.15-12.22c-15.55-4.93-31.2-9.53-46.97-13.74
		c-14.43-3.86-28.95-7.34-43.55-10.48c-11.79-2.53-23.64-4.78-35.53-6.81c-10.21-1.75-20.45-3.28-30.7-4.81
		c-6.06-0.9-12.17-1.4-18.26-2.09c-4.93-0.57-9.85-1.2-14.79-1.74c-2.63-0.29-5.29-0.55-7.89-0.63c-4.24-0.13-8.47-0.51-12.65-0.94
		c-5.17-0.53-10.39,0.09-15.5-1.04c-0.31-0.07-0.63-0.04-0.95-0.06c-16.84-0.78-33.69-0.9-50.53-0.51
		c-5.49,0.12-11.01,0.19-16.49,0.57c-6.43,0.45-12.88,0.7-19.29,1.3c-7.14,0.67-14.29,1.42-21.42,2.26
		c-11.25,1.33-22.41,3.07-33.51,5.26c-1.87,0.37-3.71,0.85-5.58,1.24c-2.89,0.6-3.49,1.21-3.7,4.22c-0.11,1.58-0.05,3.18-0.06,4.77
		c0,0.85,0.02,1.7-0.32,2.51c-0.37-0.99-0.78-1.97-1.09-2.98c-4.86-15.41-8.21-31.13-9.54-47.26c-1.18-14.22-1.15-28.39,2.05-42.39
		c2.96-12.97,8.39-24.67,18.04-34.1c7.53-7.36,16.53-12.56,25.96-17.01c14.63-6.89,30.12-10.63,46.16-12.35
		c3.68-0.39,7.42-0.19,11.03-1.15c6.58,0,13.15,0,19.73,0c0.78,0.75,1.79,0.52,2.72,0.58c11.12,0.73,22.14,2.18,33.08,4.29
		c18.79,3.63,37.1,8.86,54.87,15.98c1.2,0.48,2.37,0.74,3.7,0.58c11.9-1.42,23.86-2.26,35.82-2.84c23.64-1.15,47.27-1.15,70.88,1.05
		c12.15,1.13,24.2,2.84,36.12,5.52c19.24,4.32,36.92,12.39,53.83,22.3c26.78,15.7,50.79,34.99,72.87,56.71
		c2.99,2.95,5.82,4.3,10.17,4.27c18.91-0.14,37.67,1.72,56.24,5.45c13.79,2.76,27.28,6.48,40.33,11.77
		c5.98,2.43,11.86,5.08,17.46,8.28c19.39,11.09,36.88,24.59,51.36,41.7c7.36,8.69,13.78,18.03,16.85,29.24
		c0.23,0.83,0.72,1.22,1.53,1.37c0.72,0.14,1.42,0.41,2.14,0.57c17.63,4.08,34.76,9.7,51.58,16.33
		c10.46,4.12,20.58,8.96,30.41,14.37c10.91,5.99,21.05,13.09,30.03,21.81c11.98,11.63,18.54,25.61,18.92,42.38
		c-0.95,0.44-0.89,1.32-0.98,2.16c-1.05,9.86-4.47,18.91-9.51,27.38c-6.89,11.56-16.27,20.76-27.11,28.59
		c-14.3,10.33-30.33,17.21-46.64,23.55c-4.14,1.61-8.29,1.66-11.98-1.45C854.91,417.45,854.33,417.37,853.85,417.18z"/>
	<path class="st1" d="M951.5,337.54c0.99,8.49,1.74,16.99,1.66,25.54c-0.11,3.8-0.35,7.62,0.54,11.38c0,2.12,0,4.24,0,6.37
		c-1,4.78-0.68,9.61-0.65,14.43c-0.48,13.54-2.68,26.75-7.37,39.5c-2.41,6.53-5.92,12.4-10.39,17.74
		c-8.61,10.28-18.55,18.9-30.72,24.73c-6.64,3.18-13.54,5.5-20.93,6.09c-1.43,0.11-2.3,0.88-3.22,1.77
		c-15.35,14.63-30.7,29.25-46.06,43.86c-4.61,4.38-9.09,8.92-13.89,13.07c-4.23,3.65-7.89,7.88-12.13,11.5
		c-3.68,3.14-6.86,6.8-10.53,9.93c-3.84,3.28-7.19,7.08-11.01,10.36c-3.84,3.29-7.13,7.16-11.02,10.35
		c-5.22,4.28-9.42,9.63-14.82,13.7c0-5.52,0.7-11,1.34-16.46c2.22-18.93,6.81-37.3,13.3-55.21c1.81-4.98,3.83-9.88,5.75-14.83
		c1.06-2.73,3.03-4.84,4.79-7.08c11.28-14.33,22.75-28.51,33.61-43.17c3.91-5.28,7.17-10.99,11.44-16.03
		c7.2-8.49,14.12-17.21,21.15-25.84c0.53-0.66,1-1.37,1.5-2.05c0.48,0.19,1.06,0.27,1.44,0.59c3.69,3.11,7.84,3.05,11.98,1.45
		c16.3-6.33,32.34-13.22,46.64-23.55c10.84-7.83,20.23-17.03,27.11-28.59c5.04-8.46,8.46-17.51,9.51-27.38
		C950.62,338.85,950.55,337.98,951.5,337.54z"/>
	<g>
		<path class="st2" d="M657.18,693.4c-0.02,0-0.03,0-0.05-0.01c-0.01,0.01-0.02,0.02-0.02,0.03L657.18,693.4z"/>
		<path class="st2" d="M852.65,414.32c-3.72-5.29-7.8-10.27-11.98-15.21c-6.44-7.6-13.12-14.99-20.27-21.89
			c-6.46-6.24-13.01-12.42-19.85-18.28c-6.51-5.58-13.07-11.09-19.75-16.45c-6.52-5.24-13.22-10.24-20-15.14
			c-8.08-5.83-16.32-11.43-24.66-16.87c-11.36-7.41-23-14.37-34.73-21.17c-17.16-9.96-34.88-18.84-52.71-27.5
			c-10.86-5.28-21.95-10.08-33.06-14.82c-10.62-4.54-21.35-8.82-32.1-13.03c-7.1-2.78-14.3-5.32-21.46-7.95
			c-11.95-4.38-24.03-8.38-36.15-12.23c-15.55-4.93-31.2-9.53-46.97-13.74c-14.43-3.86-28.95-7.34-43.55-10.48
			c-11.79-2.53-23.64-4.78-35.53-6.81c-10.21-1.75-20.45-3.28-30.7-4.81c-6.06-0.9-12.17-1.4-18.26-2.09
			c-4.93-0.57-9.85-1.2-14.79-1.74c-2.63-0.29-5.29-0.55-7.89-0.63c-4.24-0.13-8.47-0.51-12.65-0.94
			c-5.17-0.53-10.39,0.09-15.5-1.04c-0.31-0.07-0.63-0.04-0.95-0.06c-16.84-0.78-33.69-0.9-50.53-0.51
			c-5.49,0.12-11.01,0.19-16.49,0.57c-6.43,0.45-12.88,0.7-19.29,1.3c-7.14,0.67-14.29,1.42-21.42,2.26
			c-11.25,1.33-22.41,3.07-33.51,5.26c-1.87,0.37-3.71,0.85-5.58,1.24c-2.89,0.6-3.49,1.21-3.7,4.22c-0.11,1.58-0.05,3.18-0.06,4.77
			c0,0.85,0.02,1.7-0.32,2.51c-0.77,12.06-1.53,24.12-2.31,36.18c-0.96,14.81-1.97,29.61-2.92,44.42
			c-0.51,7.93-0.95,15.87-1.42,23.81c-0.99,16.61-2,33.23-2.96,49.84c-0.73,12.7-1.41,25.41-2.07,38.11
			c-0.86,16.52-1.72,33.03-2.52,49.55c-0.74,15.36-1.4,30.72-2.07,46.08c-0.77,17.69-1.51,35.38-2.24,53.07
			c-0.27,6.57-0.49,13.14-0.68,19.71c-0.71,25.12-1.43,50.23-1.79,75.36c-0.13,9.32-0.53,18.64-0.52,27.97
			c0,0.87-0.14,1.68-0.46,2.47c0,4.88,0,9.76,0,14.64c0.63,1.08,0.43,2.27,0.45,3.42c0.36,21.73,1.12,43.45,2.34,65.15
			c0.85,15.14,1.07,30.3,1.33,45.46c0.38,22.37,0.17,44.75-0.17,67.12c-0.36,23.43-0.92,46.86-1.25,70.28
			c-0.24,16.86-0.39,33.72,0.12,50.58c0.38,12.39,0.92,24.79,2.87,37.06c0.7,4.4,1.61,8.75,3.09,12.97
			c0.67,1.91,1.49,3.75,2.57,5.46c1.73,2.75,4.05,4.6,7.45,4.74c6.79-1.37,12.6-4.91,18.43-8.37c14.87-8.82,28.95-18.82,42.97-28.92
			c22.44-16.17,44.4-32.98,66.28-49.89c0.92-0.71,1.86-1.43,2.9-1.93c18.93-9.15,38.31-17.07,58.87-21.84
			c6.83-1.59,13.74-2.57,20.73-2.89c5.29-0.25,10.56,0.23,15.68,1.81c4.79,0.87,9.46,2.21,13.7,4.59c1.84,1.03,3.82,1.64,5.63,2.73
			c6.58,3.94,12.7,8.48,18.27,13.74c2.38,2.24,4.38,4.9,6.8,7.09c9.47,8.56,17.07,18.84,26.05,27.85c4.2,4.21,8.52,8.28,13.57,11.49
			c5.21,3.31,10.76,5.45,17.08,5.1c1.6-0.09,3.16-0.34,4.7-0.72c15.12-3.72,25.25-16.7,25.21-32.24c-0.02-8.4-2.23-16.35-4.96-24.18
			c-3.78-10.83-8.79-21.14-13.64-31.52c-6.41-13.73-13.03-27.39-16.81-42.17c-1.16-4.53-1.95-9.12-2.13-13.8
			c-0.55-6.27,0.47-12.46,3.23-17.94c4.19-8.33,10.42-14.98,19.8-17.64c6.4-1.82,12.35-0.18,17.89,3.25c3.27,1.37,6,3.57,8.76,5.7
			c7.21,5.59,13.73,11.99,20.62,17.94c6.93,5.99,14.36,11.28,22.85,14.73c4.59,1.87,9.69,2.05,14.66,1.53
			c7.94-0.84,14.76-4.36,20.77-9.43c7.96-6.71,12.06-15.6,13.84-25.69c1.8-10.18,1.94-20.43,1.5-30.72
			c-0.57-13.33-1.54-26.66-0.88-40.02c0.32-6.47,1.06-12.88,2.62-19.17c0.2-0.27,0.4-0.55,0.6-0.82l0,0
			c0.62-5.49,3.01-10.34,5.75-14.99c6.53-11.08,16.44-18.03,28.24-22.54c3.07-1.17,6.2-2.17,9.39-2.95
			c1.02-0.25,2.02-0.51,3.08-0.27c0.41-0.69,1.15-0.42,1.74-0.57c4.84-1.32,9.65-0.87,14.44,0.27c6.08,1.45,11.41,4.48,16.47,8.03
			c6.42,4.49,12.33,9.73,19.23,13.5c2.95,1.61,5.91,3.47,9.5,3.48c0.84,0,1.69,0.13,2.53,0.2c8.57,0.72,15.82-2.25,21.91-8.12
			c9.44-9.11,14.36-20.52,16.63-33.24c0.47-2.62,0.6-5.25,0.6-7.91c0-18.86,0.04-37.72,0.08-56.58c0.01-4.88,0.3-9.74,0.71-14.6
			c0-5.52,0.7-11,1.34-16.46c2.22-18.93,6.81-37.3,13.3-55.21c1.81-4.98,3.83-9.88,5.75-14.83c1.06-2.73,3.03-4.84,4.79-7.08
			c11.28-14.33,22.75-28.51,33.61-43.17c3.91-5.28,7.17-10.99,11.44-16.03c7.2-8.49,14.12-17.21,21.15-25.84
			c0.53-0.66,1-1.37,1.5-2.05C853.85,416.06,853.28,415.21,852.65,414.32z"/>
	</g>
	<path class="st1" d="M187.33,1044.17c-4.8-0.03-9.6-0.07-14.39-0.1c-8.92-0.72-17.52-2.82-25.82-6.17
		c-0.78-0.31-1.62-0.55-2.03-1.4c6.79-1.37,12.6-4.91,18.43-8.37c14.87-8.82,28.95-18.82,42.97-28.92
		c22.44-16.17,44.4-32.98,66.28-49.89c0.92-0.71,1.86-1.43,2.9-1.93c18.93-9.15,38.31-17.07,58.87-21.84
		c6.83-1.59,13.74-2.57,20.73-2.89c5.29-0.25,10.56,0.23,15.68,1.81c-5.33,4.53-11.05,8.57-16.63,12.78
		c-37.79,28.44-75.66,56.77-114.73,83.46c-7.79,5.32-15.71,10.45-23.82,15.29C206.98,1041.24,197.4,1043.49,187.33,1044.17z"/>
	<path class="st1" d="M505.34,820.09c-0.46,0.44-0.88,0.91-1.38,1.3c-12.74,10.05-25.48,20.1-38.23,30.14
		c-0.41,0.33-0.87,0.6-1.31,0.89c-0.54-6.27,0.47-12.46,3.23-17.94c4.19-8.33,10.42-14.98,19.8-17.64
		C493.84,815.02,499.8,816.65,505.34,820.09z"/>
	<path class="st1" d="M657.18,693.4c0.2,0.95-0.64,1.27-1.14,1.72c-14.4,13.09-29.15,25.77-44.02,38.32
		c-0.4,0.33-0.76,0.75-1.36,0.7c0.62-5.49,3.01-10.34,5.75-14.99c6.53-11.08,16.44-18.03,28.24-22.54c3.07-1.17,6.2-2.17,9.39-2.95
		C655.09,693.4,656.11,693.14,657.18,693.4z"/>
	<path class="st1" d="M658.87,692.82c-0.5,0.46-1.02,0.86-1.76,0.6C657.51,692.69,658.27,692.98,658.87,692.82z"/>
	<path class="st3" d="M610.67,734.14c0.05,0.46-0.24,0.66-0.6,0.82C610.27,734.68,610.47,734.41,610.67,734.14z"/>
	<g>
		<path class="st4" d="M294.14,483.22c-1.97,0.83-3.94,1.65-5.91,2.48c-0.22,0.04-0.43,0.08-0.65,0.12
			c-0.26,0.04-0.53,0.07-0.79,0.11c-2.73,0.44-5.42,0.26-8.06-0.6c-3.17-1.03-5.81-2.88-8.13-5.23c-2.75-2.78-4.84-6.03-6.54-9.52
			c-1.9-3.89-3.4-7.94-4.55-12.12c-0.99-3.57-1.79-7.19-2.41-10.85c-0.15-0.89-0.33-1.78-0.5-2.67c-0.08-0.03-0.16-0.05-0.23-0.08
			c-0.24,0.01-0.48,0.02-0.72,0.03c-2.66,0.22-5.31,0.49-7.98,0.64c-5.23,0.28-10.46,0.13-15.65-0.64
			c-3.52-0.52-6.95-1.42-10.28-2.67c-0.64-0.24-1.24-0.61-1.84-0.95c-1.11-0.64-2.24-1.25-3.29-1.97c-2.94-2.04-5.19-4.67-6.53-8.01
			c-1.3-3.23-1.51-6.58-0.92-9.99c0.62-3.63,2.01-6.96,3.83-10.13c2.55-4.44,5.73-8.4,9.27-12.08c3.26-3.39,6.74-6.54,10.41-9.47
			c0.18-0.15,0.35-0.32,0.56-0.52c-0.16-0.25-0.29-0.48-0.44-0.69c-0.71-1-1.45-1.98-2.15-2.99c-2.81-4.03-5.42-8.17-7.54-12.6
			c-1.72-3.59-3.25-7.26-4.18-11.15c-0.77-3.23-1.21-6.5-0.9-9.84c0.55-5.95,3.2-10.65,8.3-13.89c1.98-0.82,3.95-1.65,5.93-2.47
			c1.87-0.46,3.76-0.76,5.68-0.9c4.45-0.31,8.84,0.11,13.21,0.91c5.34,0.99,10.53,2.51,15.62,4.37c1.02,0.37,2.04,0.75,3.11,1.13
			c0.14-0.29,0.27-0.52,0.37-0.77c0.22-0.57,0.4-1.16,0.66-1.71c0.57-1.2,1.19-2.38,1.78-3.57c2.31-4.7,4.91-9.23,8.02-13.45
			c2.37-3.21,4.98-6.19,8.11-8.69c1.06-0.85,2.19-1.6,3.29-2.4c0.14-0.07,0.28-0.14,0.42-0.2c1.88-0.79,3.76-1.58,5.64-2.37
			c2.35-0.58,4.73-0.69,7.12-0.3c3.21,0.53,6.02,1.94,8.53,3.98c3.59,2.91,6.11,6.65,8.21,10.69c0.86,1.65,1.57,3.38,2.35,5.08
			c0.06,0.15,0.12,0.3,0.18,0.44c0.9,2.8,1.81,5.6,2.71,8.4c0.09,0.31,0.17,0.62,0.26,0.93c0.01,0.05,0.02,0.11,0.02,0.16
			c0,0.05,0,0.11,0.01,0.16c0.86,3.62,1.66,7.26,2.16,10.96c0.01,0.1,0.09,0.18,0.16,0.31c0.88-0.09,1.75-0.19,2.62-0.28
			c5.67-0.58,11.35-0.75,17.04-0.36c0.47,0.03,0.95,0.06,1.42,0.09c0.12,0.01,0.24,0.02,0.36,0.03c0.18,0.04,0.36,0.08,0.54,0.11
			c2.33,0.4,4.67,0.75,6.98,1.22c1.3,0.26,2.56,0.69,3.84,1.05c1.13,0.46,2.26,0.93,3.39,1.39c1.1,0.65,2.22,1.25,3.29,1.95
			c2.4,1.56,4.32,3.59,5.86,5.99c0.06,0.08,0.11,0.17,0.17,0.25c0.15,0.29,0.29,0.57,0.44,0.86c0.09,0.22,0.16,0.45,0.26,0.67
			c1.37,3.02,1.72,6.19,1.33,9.46c-0.45,3.74-1.77,7.18-3.56,10.46c-2.05,3.76-4.62,7.14-7.45,10.36c-2.93,3.33-6.11,6.39-9.46,9.29
			c-1.21,1.04-2.44,2.07-3.66,3.1c-0.02,0.06-0.04,0.11-0.06,0.17c0.08,0.13,0.16,0.27,0.25,0.4c1.43,2.06,2.89,4.09,4.29,6.17
			c2.39,3.57,4.48,7.32,6.3,11.21c1.51,3.22,2.72,6.55,3.53,10.02c0.77,3.29,1.14,6.62,0.74,10c-0.64,5.3-2.98,9.62-7.42,12.72
			c-0.21,0.15-0.39,0.35-0.58,0.52c-2.02,0.85-4.04,1.69-6.06,2.54c-0.27,0.06-0.53,0.11-0.8,0.17c-0.16,0.02-0.32,0.02-0.48,0.05
			c-1.45,0.21-2.89,0.5-4.35,0.62c-4.5,0.38-8.95-0.08-13.37-0.89c-5.42-0.99-10.68-2.55-15.85-4.45c-0.95-0.35-1.89-0.69-2.87-1.05
			c-0.11,0.22-0.22,0.41-0.3,0.6c-0.83,1.79-1.62,3.6-2.48,5.38c-2.2,4.54-4.7,8.91-7.67,13.01c-2.43,3.36-5.12,6.49-8.36,9.11
			c-0.99,0.8-2.05,1.53-3.08,2.29C294.5,482.97,294.32,483.1,294.14,483.22z M302.76,315.16c-0.05,0.01-0.1,0.01-0.16,0.02
			c-0.17,0.02-0.34,0.04-0.51,0.06c-0.06-0.02-0.13-0.04-0.19-0.06c-0.1,0.03-0.2,0.07-0.31,0.1c-0.1-0.14-0.2-0.26-0.35-0.04
			c-0.11,0.04-0.21,0.07-0.32,0.11c-0.11-0.14-0.23-0.21-0.34,0c-0.2,0.08-0.4,0.16-0.6,0.25c-0.16-0.02-0.32-0.05-0.49-0.07
			c-0.82,0.38-1.66,0.74-2.46,1.16c-0.51,0.27-0.97,0.63-1.46,0.95c-0.61,0.41-1.25,0.79-1.82,1.25c-3.08,2.46-5.53,5.49-7.79,8.68
			c-1.86,2.62-3.49,5.39-4.97,8.24c-0.99,1.91-1.92,3.85-2.84,5.8c-0.39,0.81-0.7,1.65-1.05,2.5c0.23,0.12,0.36,0.19,0.51,0.26
			c1.47,0.7,2.94,1.39,4.4,2.11c5.44,2.68,10.71,5.66,15.86,8.86c0.36,0.23,0.68,0.31,1.11,0.17c1.42-0.46,2.84-0.89,4.28-1.29
			c2.03-0.57,4.05-1.17,6.1-1.64c4.03-0.92,8.08-1.76,12.11-2.64c0.17-0.04,0.33-0.11,0.56-0.19c-0.33-1.83-0.64-3.61-0.98-5.39
			c-0.15-0.76-0.37-1.5-0.56-2.24c0.14-0.11,0.25-0.22,0.02-0.35c-0.08-0.2-0.16-0.4-0.24-0.6c0.14-0.11,0.25-0.22,0.02-0.35
			c-0.08-0.2-0.16-0.4-0.24-0.6c0.03-0.16,0.05-0.32,0.08-0.49c-0.11-0.33-0.25-0.64-0.33-0.98c-0.8-3.12-1.78-6.18-3-9.16
			c0.1-0.21,0.03-0.36-0.18-0.44c-0.78-1.59-1.56-3.17-2.33-4.76c0.08-0.26-0.07-0.26-0.26-0.24c-0.11-0.25-0.21-0.49-0.32-0.74
			c0.07-0.26-0.08-0.26-0.26-0.23c-0.09-0.2-0.17-0.39-0.26-0.59c0.08-0.26-0.08-0.26-0.26-0.23c-0.02-0.06-0.03-0.11-0.05-0.17
			c0.04-0.3-0.02-0.52-0.38-0.52c-0.05-0.1-0.1-0.2-0.14-0.3c0.06-0.23-0.07-0.25-0.25-0.23c-0.05-0.1-0.1-0.2-0.15-0.3
			c0.06-0.24-0.08-0.25-0.25-0.23c-0.06-0.1-0.11-0.19-0.17-0.29c-0.05-0.03-0.1-0.06-0.15-0.08c-0.06-0.1-0.12-0.2-0.19-0.31
			c-0.05-0.03-0.09-0.05-0.14-0.08c-0.06-0.1-0.13-0.2-0.19-0.3c-0.05-0.03-0.1-0.05-0.15-0.08c-0.06-0.1-0.12-0.2-0.18-0.3
			c-0.05-0.03-0.11-0.06-0.16-0.08c-0.15-0.18-0.3-0.35-0.44-0.53c-0.06-0.03-0.11-0.05-0.17-0.08c-0.72-0.57-1.41-1.18-2.17-1.69
			c-0.65-0.44-1.35-0.82-2.07-1.11c-0.57-0.23-1.22-0.28-1.83-0.4c-0.07-0.03-0.13-0.05-0.2-0.08c-0.06,0.01-0.12,0.01-0.18,0.02
			c-0.06-0.02-0.12-0.03-0.18-0.05c-0.06,0.01-0.12,0.02-0.18,0.02C302.88,315.19,302.82,315.18,302.76,315.16
			C302.76,315.16,302.76,315.16,302.76,315.16z M269.57,367c1.69-0.78,3.36-1.61,5.08-2.33c4.4-1.83,8.81-3.6,13.23-5.39
			c0.22-0.09,0.46-0.14,0.69-0.21c0.05-0.02,0.08-0.06,0.08-0.11c-0.11-0.08-0.2-0.17-0.32-0.24c-4.4-2.56-8.91-4.9-13.52-7.05
			c-0.16-0.07-0.34-0.09-0.7-0.18c-0.13,0.43-0.24,0.84-0.36,1.24c-1.1,3.51-2.21,7.01-3.29,10.53c-0.37,1.22-0.64,2.47-0.95,3.71
			l0.01,0.07L269.57,367z M316.84,426.67c-0.03-0.05-0.06-0.09-0.09-0.14c-0.94,0.44-1.87,0.9-2.82,1.3
			c-4.46,1.88-8.93,3.75-13.4,5.61c-0.83,0.35-1.69,0.64-2.53,0.96c-0.06,0.04-0.12,0.07-0.18,0.11c0.07,0.04,0.15,0.08,0.22,0.13
			c0.17,0.13,0.33,0.28,0.51,0.37c3.77,2,7.55,3.99,11.33,5.97c0.73,0.38,1.49,0.69,2.38,1.1c0.11-0.4,0.18-0.71,0.28-1.01
			c1.48-4.21,2.8-8.46,3.94-12.78C316.64,427.77,316.73,427.22,316.84,426.67z M255.39,436.98c0.08-0.04,0.15-0.08,0.23-0.13
			c0-0.18,0.02-0.37,0.01-0.55c-0.69-7.56-0.86-15.13-0.61-22.71c0.02-0.58-0.13-1-0.57-1.4c-5.64-5.2-10.96-10.69-15.92-16.54
			c-0.1-0.12-0.23-0.2-0.37-0.33c-0.22,0.16-0.42,0.29-0.6,0.44c-3.84,3.07-7.47,6.37-10.79,10c-2.97,3.24-5.66,6.68-7.67,10.61
			c-1.15,2.25-2.06,4.58-2.33,7.11c-0.37,3.45,0.68,6.36,3.34,8.65c1.85,1.59,4,2.63,6.29,3.42c4.31,1.48,8.78,2.04,13.29,2.24
			c4.62,0.2,9.23-0.02,13.82-0.52C254.14,437.2,254.76,437.07,255.39,436.98z M282.04,369.98c-3.04,1.36-6.07,2.7-9.08,4.08
			c-1.65,0.76-3.26,1.6-4.9,2.38c-0.66,0.31-0.98,0.75-1.13,1.49c-1.98,10.13-3.28,20.34-3.9,30.63c-0.04,0.64,0.17,1.03,0.63,1.43
			c5.59,4.89,11.39,9.51,17.44,13.81c2.44,1.73,4.93,3.38,7.4,5.06c0.34,0.23,0.65,0.36,1.1,0.19c2.41-0.88,4.85-1.66,7.24-2.58
			c3.18-1.23,6.34-2.55,9.49-3.87c4.19-1.75,8.3-3.67,12.34-5.72c0.43-0.22,0.64-0.48,0.73-0.94c0.36-2.02,0.77-4.04,1.12-6.06
			c1.43-8.26,2.35-16.58,2.85-24.95c0.04-0.59-0.11-1-0.57-1.38c-1.65-1.36-3.25-2.77-4.89-4.14c-6.32-5.26-12.95-10.13-19.81-14.66
			c-0.56-0.37-1.05-0.41-1.64-0.2c-1.76,0.63-3.53,1.21-5.28,1.88C288.12,367.58,285.07,368.79,282.04,369.98z M319.43,445.12
			c0.32,0.14,0.56,0.26,0.8,0.35c1.38,0.5,2.75,1.02,4.14,1.5c5.14,1.76,10.36,3.16,15.76,3.84c3.56,0.45,7.12,0.54,10.67-0.09
			c1.99-0.35,3.86-0.98,5.55-2.1c1.97-1.31,3.21-3.14,3.85-5.4c0.36-1.27,0.47-2.57,0.46-3.88c-0.02-2.67-0.58-5.24-1.36-7.78
			c-1.13-3.69-2.77-7.16-4.62-10.54c-1.91-3.49-4.09-6.81-6.42-10.03c-0.43-0.6-0.89-1.19-1.38-1.84c-0.3,0.18-0.55,0.32-0.78,0.48
			c-0.95,0.65-1.87,1.33-2.84,1.95c-3.29,2.08-6.57,4.18-9.9,6.2c-2.1,1.27-4.26,2.43-6.42,3.59c-0.54,0.29-0.84,0.61-0.98,1.23
			c-1.51,6.72-3.35,13.35-5.61,19.87C320.06,443.31,319.76,444.17,319.43,445.12z M266.98,348.36c-0.33-0.15-0.57-0.27-0.81-0.36
			c-0.72-0.27-1.45-0.54-2.18-0.81c-4.95-1.8-9.99-3.28-15.19-4.15c-3.78-0.64-7.57-0.97-11.39-0.54c-2.27,0.25-4.46,0.75-6.49,1.86
			c-2.37,1.29-3.94,3.22-4.68,5.82c-0.58,2.04-0.58,4.11-0.34,6.19c0.42,3.58,1.54,6.98,2.97,10.26c0.94,2.15,2,4.25,3.14,6.3
			c2.09,3.78,4.5,7.37,7.08,10.83c0.15,0.2,0.33,0.39,0.5,0.58c0.19-0.12,0.3-0.19,0.41-0.27c3.91-2.74,7.9-5.36,12.03-7.75
			c2.51-1.46,5.04-2.89,7.58-4.3c0.5-0.28,0.72-0.61,0.84-1.15c1.52-6.72,3.35-13.35,5.61-19.86
			C266.36,350.17,266.65,349.31,266.98,348.36z M330.76,356.46c0.01,0.28,0.01,0.49,0.03,0.7c0.71,7.61,0.86,15.23,0.62,22.86
			c-0.02,0.53,0.13,0.88,0.52,1.24c5.57,5.11,10.81,10.53,15.71,16.28c0.19,0.22,0.38,0.43,0.58,0.65c0.14-0.09,0.24-0.13,0.32-0.19
			c5.1-4.11,9.92-8.5,14-13.65c1.24-1.57,2.38-3.22,3.46-4.9c0.69-1.07,1.17-2.26,1.77-3.39c1.17-2.2,1.86-4.53,1.95-7.01
			c0.1-2.78-0.83-5.18-2.81-7.15c-1.46-1.46-3.21-2.47-5.08-3.27c-3.75-1.59-7.7-2.32-11.73-2.69c-5.79-0.54-11.56-0.32-17.33,0.29
			C332.11,356.3,331.45,356.38,330.76,356.46z M264.46,443.65c0.01,0.3,0,0.49,0.03,0.67c0.85,5.15,1.84,10.26,3.54,15.21
			c0.76,2.22,1.56,4.42,2.56,6.55c0.98,2.08,2.08,4.09,3.43,5.95c1.37,1.89,2.93,3.6,4.95,4.83c1.5,0.92,3.12,1.48,4.91,1.47
			c2.49-0.01,4.68-0.93,6.74-2.23c2.22-1.41,4.12-3.2,5.87-5.15c2.65-2.95,4.9-6.19,6.87-9.62c1.15-2,2.17-4.08,3.24-6.14
			c0.32-0.61,0.51-1.29,0.89-1.86c0.79-1.17,1.04-2.56,1.64-3.8c0.03-0.06-0.01-0.15-0.02-0.24c-0.12-0.06-0.24-0.13-0.35-0.19
			c-2.04-0.99-4.1-1.94-6.11-2.99c-2.58-1.34-5.13-2.71-7.66-4.14c-2.18-1.23-4.32-2.55-6.47-3.84c-0.33-0.2-0.64-0.32-1.05-0.19
			c-2.68,0.79-5.36,1.58-8.05,2.34c-4.42,1.23-8.9,2.22-13.4,3.07C265.51,443.44,265.02,443.54,264.46,443.65z M322.97,357.63
			c-5.38,0.96-10.59,2.17-15.76,3.72c5.62,4,11.07,8.16,16.47,12.64C323.71,368.44,323.48,363.1,322.97,357.63z M255.54,402.29
			c0.68-6.86,1.54-13.65,2.72-20.45c-1.8,0.68-12.71,7.67-13.72,8.78C247.97,394.71,251.63,398.59,255.54,402.29z M263.44,435.74
			c1.84,0.03,14.85-3.02,15.78-3.7c-5.64-3.9-11.07-8.06-16.48-12.54C262.71,425.04,262.94,430.37,263.44,435.74z M341.96,402.95
			c-3.54-4.21-7.21-8.1-11.16-11.98c-0.58,6.76-1.39,13.32-2.5,19.84c-0.04,0.21-0.05,0.42-0.07,0.63c0,0.02,0.03,0.05,0.04,0.06
			c0.02,0.02,0.04,0.03,0.14,0.09C333,408.97,337.49,406.13,341.96,402.95z"/>
		<path class="st4" d="M278.52,403.29c-0.1-0.25-0.21-0.49-0.31-0.74c-0.06-0.15-0.12-0.3-0.18-0.45c-0.54-1.85-0.94-3.72-0.86-5.67
			c0.22-5.63,2.63-10.09,7.33-13.15c7.38-4.81,17.07-2.83,21.99,4.49c5.3,7.88,2.59,17.72-4.38,22.31c-0.6,0.4-1.23,0.75-1.84,1.12
			c-0.15,0.06-0.29,0.13-0.44,0.19c-0.25,0.1-0.49,0.21-0.74,0.31c-0.15,0.06-0.3,0.12-0.45,0.18c-2.37,0.74-4.78,1.11-7.26,0.79
			c-5.29-0.7-9.31-3.34-12.06-7.91c-0.21-0.34-0.41-0.69-0.61-1.03C278.65,403.58,278.59,403.44,278.52,403.29z"/>
	</g>
	<g>
		<path class="st4" d="M659.33,483.22c-1.97,0.83-3.94,1.65-5.91,2.48c-0.22,0.04-0.43,0.08-0.65,0.12
			c-0.26,0.04-0.53,0.07-0.79,0.11c-2.73,0.44-5.42,0.26-8.06-0.6c-3.17-1.03-5.81-2.88-8.13-5.23c-2.75-2.78-4.84-6.03-6.54-9.52
			c-1.9-3.89-3.4-7.94-4.55-12.12c-0.99-3.57-1.79-7.19-2.41-10.85c-0.15-0.89-0.33-1.78-0.5-2.67c-0.08-0.03-0.16-0.05-0.23-0.08
			c-0.24,0.01-0.48,0.02-0.72,0.03c-2.66,0.22-5.31,0.49-7.98,0.64c-5.23,0.28-10.46,0.13-15.65-0.64
			c-3.52-0.52-6.95-1.42-10.28-2.67c-0.64-0.24-1.24-0.61-1.84-0.95c-1.11-0.64-2.24-1.25-3.29-1.97c-2.94-2.04-5.19-4.67-6.53-8.01
			c-1.3-3.23-1.51-6.58-0.92-9.99c0.62-3.63,2.01-6.96,3.83-10.13c2.55-4.44,5.73-8.4,9.27-12.08c3.26-3.39,6.74-6.54,10.41-9.47
			c0.18-0.15,0.35-0.32,0.56-0.52c-0.16-0.25-0.29-0.48-0.44-0.69c-0.71-1-1.45-1.98-2.15-2.99c-2.81-4.03-5.42-8.17-7.54-12.6
			c-1.72-3.59-3.25-7.26-4.18-11.15c-0.77-3.23-1.21-6.5-0.9-9.84c0.55-5.95,3.2-10.65,8.3-13.89c1.98-0.82,3.95-1.65,5.93-2.47
			c1.87-0.46,3.76-0.76,5.68-0.9c4.45-0.31,8.84,0.11,13.21,0.91c5.34,0.99,10.53,2.51,15.62,4.37c1.02,0.37,2.04,0.75,3.11,1.13
			c0.14-0.29,0.27-0.52,0.37-0.77c0.22-0.57,0.4-1.16,0.66-1.71c0.57-1.2,1.19-2.38,1.78-3.57c2.31-4.7,4.91-9.23,8.02-13.45
			c2.37-3.21,4.98-6.19,8.11-8.69c1.06-0.85,2.19-1.6,3.29-2.4c0.14-0.07,0.28-0.14,0.42-0.2c1.88-0.79,3.76-1.58,5.64-2.37
			c2.35-0.58,4.73-0.69,7.12-0.3c3.21,0.53,6.02,1.94,8.53,3.98c3.59,2.91,6.11,6.65,8.21,10.69c0.86,1.65,1.57,3.38,2.35,5.08
			c0.06,0.15,0.12,0.3,0.18,0.44c0.9,2.8,1.81,5.6,2.71,8.4c0.09,0.31,0.17,0.62,0.26,0.93c0.01,0.05,0.02,0.11,0.02,0.16
			c0,0.05,0,0.11,0.01,0.16c0.86,3.62,1.66,7.26,2.16,10.96c0.01,0.1,0.09,0.18,0.16,0.31c0.88-0.09,1.75-0.19,2.62-0.28
			c5.67-0.58,11.35-0.75,17.04-0.36c0.47,0.03,0.95,0.06,1.42,0.09c0.12,0.01,0.24,0.02,0.36,0.03c0.18,0.04,0.36,0.08,0.54,0.11
			c2.33,0.4,4.67,0.75,6.98,1.22c1.3,0.26,2.56,0.69,3.84,1.05c1.13,0.46,2.26,0.93,3.39,1.39c1.1,0.65,2.22,1.25,3.29,1.95
			c2.4,1.56,4.32,3.59,5.86,5.99c0.06,0.08,0.11,0.17,0.17,0.25c0.15,0.29,0.29,0.57,0.44,0.86c0.09,0.22,0.16,0.45,0.26,0.67
			c1.37,3.02,1.72,6.19,1.33,9.46c-0.45,3.74-1.77,7.18-3.56,10.46c-2.05,3.76-4.62,7.14-7.45,10.36c-2.93,3.33-6.11,6.39-9.46,9.29
			c-1.21,1.04-2.44,2.07-3.66,3.1c-0.02,0.06-0.04,0.11-0.06,0.17c0.08,0.13,0.16,0.27,0.25,0.4c1.43,2.06,2.89,4.09,4.29,6.17
			c2.39,3.57,4.48,7.32,6.3,11.21c1.51,3.22,2.72,6.55,3.53,10.02c0.77,3.29,1.14,6.62,0.74,10c-0.64,5.3-2.98,9.62-7.42,12.72
			c-0.21,0.15-0.39,0.35-0.58,0.52c-2.02,0.85-4.04,1.69-6.06,2.54c-0.27,0.06-0.53,0.11-0.8,0.17c-0.16,0.02-0.32,0.02-0.48,0.05
			c-1.45,0.21-2.89,0.5-4.35,0.62c-4.5,0.38-8.95-0.08-13.37-0.89c-5.42-0.99-10.68-2.55-15.85-4.45c-0.95-0.35-1.89-0.69-2.87-1.05
			c-0.11,0.22-0.22,0.41-0.3,0.6c-0.83,1.79-1.62,3.6-2.48,5.38c-2.2,4.54-4.7,8.91-7.67,13.01c-2.43,3.36-5.12,6.49-8.36,9.11
			c-0.99,0.8-2.05,1.53-3.08,2.29C659.69,482.97,659.51,483.1,659.33,483.22z M667.95,315.16c-0.05,0.01-0.1,0.01-0.16,0.02
			c-0.17,0.02-0.34,0.04-0.51,0.06c-0.06-0.02-0.13-0.04-0.19-0.06c-0.1,0.03-0.2,0.07-0.31,0.1c-0.1-0.14-0.2-0.26-0.35-0.04
			c-0.11,0.04-0.21,0.07-0.32,0.11c-0.11-0.14-0.23-0.21-0.34,0c-0.2,0.08-0.4,0.16-0.6,0.25c-0.16-0.02-0.32-0.05-0.49-0.07
			c-0.82,0.38-1.66,0.74-2.46,1.16c-0.51,0.27-0.97,0.63-1.46,0.95c-0.61,0.41-1.25,0.79-1.82,1.25c-3.08,2.46-5.53,5.49-7.79,8.68
			c-1.86,2.62-3.49,5.39-4.97,8.24c-0.99,1.91-1.92,3.85-2.84,5.8c-0.39,0.81-0.7,1.65-1.05,2.5c0.23,0.12,0.36,0.19,0.51,0.26
			c1.47,0.7,2.94,1.39,4.4,2.11c5.44,2.68,10.71,5.66,15.86,8.86c0.36,0.23,0.68,0.31,1.11,0.17c1.42-0.46,2.84-0.89,4.28-1.29
			c2.03-0.57,4.05-1.17,6.1-1.64c4.03-0.92,8.08-1.76,12.11-2.64c0.17-0.04,0.33-0.11,0.56-0.19c-0.33-1.83-0.64-3.61-0.98-5.39
			c-0.15-0.76-0.37-1.5-0.56-2.24c0.14-0.11,0.25-0.22,0.02-0.35c-0.08-0.2-0.16-0.4-0.24-0.6c0.14-0.11,0.25-0.22,0.02-0.35
			c-0.08-0.2-0.16-0.4-0.24-0.6c0.03-0.16,0.05-0.32,0.08-0.49c-0.11-0.33-0.25-0.64-0.33-0.98c-0.8-3.12-1.78-6.18-3-9.16
			c0.1-0.21,0.03-0.36-0.18-0.44c-0.78-1.59-1.56-3.17-2.33-4.76c0.08-0.26-0.07-0.26-0.26-0.24c-0.11-0.25-0.21-0.49-0.32-0.74
			c0.07-0.26-0.08-0.26-0.26-0.23c-0.09-0.2-0.17-0.39-0.26-0.59c0.08-0.26-0.08-0.26-0.26-0.23c-0.02-0.06-0.03-0.11-0.05-0.17
			c0.04-0.3-0.02-0.52-0.38-0.52c-0.05-0.1-0.1-0.2-0.14-0.3c0.06-0.23-0.07-0.25-0.25-0.23c-0.05-0.1-0.1-0.2-0.15-0.3
			c0.06-0.24-0.08-0.25-0.25-0.23c-0.06-0.1-0.11-0.19-0.17-0.29c-0.05-0.03-0.1-0.06-0.15-0.08c-0.06-0.1-0.12-0.2-0.19-0.31
			c-0.05-0.03-0.09-0.05-0.14-0.08c-0.06-0.1-0.13-0.2-0.19-0.3c-0.05-0.03-0.1-0.05-0.15-0.08c-0.06-0.1-0.12-0.2-0.18-0.3
			c-0.05-0.03-0.11-0.06-0.16-0.08c-0.15-0.18-0.3-0.35-0.44-0.53c-0.06-0.03-0.11-0.05-0.17-0.08c-0.72-0.57-1.41-1.18-2.17-1.69
			c-0.65-0.44-1.35-0.82-2.07-1.11c-0.57-0.23-1.22-0.28-1.83-0.4c-0.07-0.03-0.13-0.05-0.2-0.08c-0.06,0.01-0.12,0.01-0.18,0.02
			c-0.06-0.02-0.12-0.03-0.18-0.05c-0.06,0.01-0.12,0.02-0.18,0.02C668.07,315.19,668.01,315.18,667.95,315.16
			C667.95,315.16,667.95,315.16,667.95,315.16z M634.76,367c1.69-0.78,3.36-1.61,5.08-2.33c4.4-1.83,8.81-3.6,13.23-5.39
			c0.22-0.09,0.46-0.14,0.69-0.21c0.05-0.02,0.08-0.06,0.08-0.11c-0.11-0.08-0.2-0.17-0.32-0.24c-4.4-2.56-8.91-4.9-13.52-7.05
			c-0.16-0.07-0.34-0.09-0.7-0.18c-0.13,0.43-0.24,0.84-0.36,1.24c-1.1,3.51-2.21,7.01-3.29,10.53c-0.37,1.22-0.64,2.47-0.95,3.71
			l0.01,0.07L634.76,367z M682.03,426.67c-0.03-0.05-0.06-0.09-0.09-0.14c-0.94,0.44-1.87,0.9-2.82,1.3
			c-4.46,1.88-8.93,3.75-13.4,5.61c-0.83,0.35-1.69,0.64-2.53,0.96c-0.06,0.04-0.12,0.07-0.18,0.11c0.07,0.04,0.15,0.08,0.22,0.13
			c0.17,0.13,0.33,0.28,0.51,0.37c3.77,2,7.55,3.99,11.33,5.97c0.73,0.38,1.49,0.69,2.38,1.1c0.11-0.4,0.18-0.71,0.28-1.01
			c1.48-4.21,2.8-8.46,3.94-12.78C681.83,427.77,681.92,427.22,682.03,426.67z M620.58,436.98c0.08-0.04,0.15-0.08,0.23-0.13
			c0-0.18,0.02-0.37,0.01-0.55c-0.69-7.56-0.86-15.13-0.61-22.71c0.02-0.58-0.13-1-0.57-1.4c-5.64-5.2-10.96-10.69-15.92-16.54
			c-0.1-0.12-0.23-0.2-0.37-0.33c-0.22,0.16-0.42,0.29-0.6,0.44c-3.84,3.07-7.47,6.37-10.79,10c-2.97,3.24-5.66,6.68-7.67,10.61
			c-1.15,2.25-2.06,4.58-2.33,7.11c-0.37,3.45,0.68,6.36,3.34,8.65c1.85,1.59,4,2.63,6.29,3.42c4.31,1.48,8.78,2.04,13.29,2.24
			c4.62,0.2,9.23-0.02,13.82-0.52C619.32,437.2,619.95,437.07,620.58,436.98z M647.23,369.98c-3.04,1.36-6.07,2.7-9.08,4.08
			c-1.65,0.76-3.26,1.6-4.9,2.38c-0.66,0.31-0.98,0.75-1.13,1.49c-1.98,10.13-3.28,20.34-3.9,30.63c-0.04,0.64,0.17,1.03,0.63,1.43
			c5.59,4.89,11.39,9.51,17.44,13.81c2.44,1.73,4.93,3.38,7.4,5.06c0.34,0.23,0.65,0.36,1.1,0.19c2.41-0.88,4.85-1.66,7.24-2.58
			c3.18-1.23,6.34-2.55,9.49-3.87c4.19-1.75,8.3-3.67,12.34-5.72c0.43-0.22,0.64-0.48,0.73-0.94c0.36-2.02,0.77-4.04,1.12-6.06
			c1.43-8.26,2.35-16.58,2.85-24.95c0.04-0.59-0.11-1-0.57-1.38c-1.65-1.36-3.25-2.77-4.89-4.14c-6.32-5.26-12.95-10.13-19.81-14.66
			c-0.56-0.37-1.05-0.41-1.64-0.2c-1.76,0.63-3.53,1.21-5.28,1.88C653.31,367.58,650.26,368.79,647.23,369.98z M684.62,445.12
			c0.32,0.14,0.56,0.26,0.8,0.35c1.38,0.5,2.75,1.02,4.14,1.5c5.14,1.76,10.36,3.16,15.76,3.84c3.56,0.45,7.12,0.54,10.67-0.09
			c1.99-0.35,3.86-0.98,5.55-2.1c1.97-1.31,3.21-3.14,3.85-5.4c0.36-1.27,0.47-2.57,0.46-3.88c-0.02-2.67-0.58-5.24-1.36-7.78
			c-1.13-3.69-2.77-7.16-4.62-10.54c-1.91-3.49-4.09-6.81-6.42-10.03c-0.43-0.6-0.89-1.19-1.38-1.84c-0.3,0.18-0.55,0.32-0.78,0.48
			c-0.95,0.65-1.87,1.33-2.84,1.95c-3.29,2.08-6.57,4.18-9.9,6.2c-2.1,1.27-4.26,2.43-6.42,3.59c-0.54,0.29-0.84,0.61-0.98,1.23
			c-1.51,6.72-3.35,13.35-5.61,19.87C685.25,443.31,684.95,444.17,684.62,445.12z M632.17,348.36c-0.33-0.15-0.57-0.27-0.81-0.36
			c-0.72-0.27-1.45-0.54-2.18-0.81c-4.95-1.8-9.99-3.28-15.19-4.15c-3.78-0.64-7.57-0.97-11.39-0.54c-2.27,0.25-4.46,0.75-6.49,1.86
			c-2.37,1.29-3.94,3.22-4.68,5.82c-0.58,2.04-0.58,4.11-0.34,6.19c0.42,3.58,1.54,6.98,2.97,10.26c0.94,2.15,2,4.25,3.14,6.3
			c2.09,3.78,4.5,7.37,7.08,10.83c0.15,0.2,0.33,0.39,0.5,0.58c0.19-0.12,0.3-0.19,0.41-0.27c3.91-2.74,7.9-5.36,12.03-7.75
			c2.51-1.46,5.04-2.89,7.58-4.3c0.5-0.28,0.72-0.61,0.84-1.15c1.52-6.72,3.35-13.35,5.61-19.86
			C631.55,350.17,631.84,349.31,632.17,348.36z M695.95,356.46c0.01,0.28,0.01,0.49,0.03,0.7c0.71,7.61,0.86,15.23,0.62,22.86
			c-0.02,0.53,0.13,0.88,0.52,1.24c5.57,5.11,10.81,10.53,15.71,16.28c0.19,0.22,0.38,0.43,0.58,0.65c0.14-0.09,0.24-0.13,0.32-0.19
			c5.1-4.11,9.92-8.5,14-13.65c1.24-1.57,2.38-3.22,3.46-4.9c0.69-1.07,1.17-2.26,1.77-3.39c1.17-2.2,1.86-4.53,1.95-7.01
			c0.1-2.78-0.83-5.18-2.81-7.15c-1.46-1.46-3.21-2.47-5.08-3.27c-3.75-1.59-7.7-2.32-11.73-2.69c-5.79-0.54-11.56-0.32-17.33,0.29
			C697.3,356.3,696.64,356.38,695.95,356.46z M629.65,443.65c0.01,0.3,0,0.49,0.03,0.67c0.85,5.15,1.84,10.26,3.54,15.21
			c0.76,2.22,1.56,4.42,2.56,6.55c0.98,2.08,2.08,4.09,3.43,5.95c1.37,1.89,2.93,3.6,4.95,4.83c1.5,0.92,3.12,1.48,4.91,1.47
			c2.49-0.01,4.68-0.93,6.74-2.23c2.22-1.41,4.12-3.2,5.87-5.15c2.65-2.95,4.9-6.19,6.87-9.62c1.15-2,2.17-4.08,3.24-6.14
			c0.32-0.61,0.51-1.29,0.89-1.86c0.79-1.17,1.04-2.56,1.64-3.8c0.03-0.06-0.01-0.15-0.02-0.24c-0.12-0.06-0.24-0.13-0.35-0.19
			c-2.04-0.99-4.1-1.94-6.11-2.99c-2.58-1.34-5.13-2.71-7.66-4.14c-2.18-1.23-4.32-2.55-6.47-3.84c-0.33-0.2-0.64-0.32-1.05-0.19
			c-2.68,0.79-5.36,1.58-8.05,2.34c-4.42,1.23-8.9,2.22-13.4,3.07C630.7,443.44,630.21,443.54,629.65,443.65z M688.16,357.63
			c-5.38,0.96-10.59,2.17-15.76,3.72c5.62,4,11.07,8.16,16.47,12.64C688.9,368.44,688.67,363.1,688.16,357.63z M620.73,402.29
			c0.68-6.86,1.54-13.65,2.72-20.45c-1.8,0.68-12.71,7.67-13.72,8.78C613.16,394.71,616.82,398.59,620.73,402.29z M628.63,435.74
			c1.84,0.03,14.85-3.02,15.78-3.7c-5.64-3.9-11.07-8.06-16.48-12.54C627.9,425.04,628.13,430.37,628.63,435.74z M707.15,402.95
			c-3.54-4.21-7.21-8.1-11.16-11.98c-0.58,6.76-1.39,13.32-2.5,19.84c-0.04,0.21-0.05,0.42-0.07,0.63c0,0.02,0.03,0.05,0.04,0.06
			c0.02,0.02,0.04,0.03,0.14,0.09C698.19,408.97,702.68,406.13,707.15,402.95z"/>
		<path class="st4" d="M643.71,403.29c-0.1-0.25-0.21-0.49-0.31-0.74c-0.06-0.15-0.12-0.3-0.18-0.45c-0.54-1.85-0.94-3.72-0.86-5.67
			c0.22-5.63,2.63-10.09,7.33-13.15c7.38-4.81,17.07-2.83,21.99,4.49c5.3,7.88,2.59,17.72-4.38,22.31c-0.6,0.4-1.23,0.75-1.84,1.12
			c-0.15,0.06-0.29,0.13-0.44,0.19c-0.25,0.1-0.49,0.21-0.74,0.31c-0.15,0.06-0.3,0.12-0.45,0.18c-2.37,0.74-4.78,1.11-7.26,0.79
			c-5.29-0.7-9.31-3.34-12.06-7.91c-0.21-0.34-0.41-0.69-0.61-1.03C643.84,403.58,643.78,403.44,643.71,403.29z"/>
	</g>
	<g>
		<path class="st4" d="M182.25,846.87c-1.75-1.23-3.49-2.46-5.24-3.69c-0.15-0.16-0.29-0.32-0.44-0.49
			c-0.17-0.2-0.34-0.41-0.52-0.61c-1.82-2.09-3.1-4.45-3.78-7.15c-0.81-3.24-0.64-6.46,0.11-9.67c0.89-3.81,2.54-7.3,4.59-10.6
			c2.29-3.67,4.92-7.1,7.85-10.29c2.5-2.73,5.14-5.34,7.91-7.8c0.68-0.6,1.33-1.23,2-1.84c-0.02-0.08-0.04-0.16-0.06-0.24
			c-0.14-0.2-0.27-0.4-0.41-0.59c-1.59-2.14-3.24-4.24-4.78-6.42c-3.02-4.28-5.66-8.79-7.77-13.6c-1.43-3.26-2.49-6.64-3.2-10.12
			c-0.14-0.67-0.15-1.37-0.17-2.06c-0.05-1.28-0.14-2.56-0.08-3.84c0.16-3.57,1.2-6.88,3.32-9.79c2.04-2.81,4.77-4.77,7.97-6.09
			c3.4-1.4,6.97-1.99,10.62-2.14c5.12-0.2,10.16,0.39,15.16,1.44c4.6,0.96,9.12,2.24,13.55,3.79c0.22,0.08,0.45,0.12,0.74,0.2
			c0.13-0.27,0.25-0.5,0.35-0.74c0.47-1.13,0.91-2.28,1.39-3.41c1.92-4.52,4.04-8.94,6.67-13.09c2.13-3.36,4.42-6.61,7.22-9.46
			c2.33-2.37,4.87-4.48,7.85-5.99c5.34-2.7,10.73-2.95,16.18-0.34c1.75,1.24,3.5,2.47,5.24,3.71c1.38,1.34,2.64,2.78,3.78,4.34
			c2.63,3.6,4.61,7.55,6.24,11.68c2,5.05,3.47,10.25,4.59,15.56c0.22,1.06,0.45,2.13,0.69,3.23c0.32-0.04,0.59-0.05,0.84-0.1
			c0.6-0.11,1.19-0.28,1.8-0.35c1.32-0.16,2.65-0.26,3.97-0.39c5.21-0.54,10.43-0.75,15.65-0.35c3.98,0.3,7.89,0.93,11.67,2.25
			c1.28,0.45,2.52,1.01,3.78,1.51c0.13,0.08,0.27,0.17,0.4,0.25c1.67,1.17,3.33,2.35,5,3.52c1.74,1.69,3.1,3.64,4.04,5.87
			c1.26,3,1.55,6.13,1.16,9.34c-0.56,4.59-2.39,8.71-4.69,12.64c-0.94,1.61-2.03,3.13-3.05,4.69c-0.09,0.13-0.19,0.26-0.28,0.39
			c-1.89,2.25-3.78,4.51-5.67,6.76c-0.22,0.24-0.44,0.48-0.65,0.72c-0.04,0.04-0.08,0.07-0.12,0.11c-0.04,0.03-0.09,0.06-0.13,0.1
			c-2.61,2.65-5.27,5.26-8.14,7.65c-0.07,0.06-0.1,0.18-0.18,0.3c0.54,0.69,1.09,1.38,1.62,2.07c3.5,4.5,6.66,9.22,9.36,14.25
			c0.22,0.42,0.45,0.83,0.68,1.25c0.06,0.11,0.11,0.21,0.17,0.32c0.07,0.17,0.13,0.35,0.2,0.52c0.9,2.19,1.84,4.36,2.68,6.56
			c0.47,1.24,0.77,2.54,1.15,3.81c0.21,1.2,0.41,2.41,0.62,3.61c0.04,1.27,0.12,2.55,0.1,3.82c-0.04,2.86-0.74,5.57-1.96,8.15
			c-0.04,0.09-0.08,0.19-0.13,0.28c-0.17,0.28-0.33,0.55-0.5,0.83c-0.14,0.19-0.3,0.38-0.43,0.58c-1.83,2.76-4.33,4.74-7.31,6.15
			c-3.4,1.61-7.02,2.32-10.75,2.54c-4.28,0.26-8.51-0.12-12.73-0.81c-4.38-0.71-8.66-1.78-12.89-3.08
			c-1.53-0.47-3.05-0.97-4.57-1.45c-0.06,0.01-0.12,0.03-0.18,0.04c-0.07,0.14-0.15,0.28-0.21,0.43c-0.98,2.3-1.93,4.62-2.95,6.91
			c-1.75,3.92-3.82,7.69-6.15,11.3c-1.93,2.99-4.11,5.78-6.61,8.31c-2.38,2.4-5,4.48-8.08,5.94c-4.83,2.28-9.74,2.59-14.71,0.47
			c-0.24-0.1-0.5-0.15-0.75-0.22c-1.79-1.26-3.58-2.52-5.37-3.78c-0.19-0.2-0.38-0.39-0.57-0.59c-0.1-0.13-0.19-0.26-0.29-0.38
			c-0.95-1.12-1.96-2.19-2.83-3.36c-2.71-3.61-4.69-7.62-6.35-11.8c-2.04-5.12-3.51-10.41-4.64-15.79
			c-0.21-0.99-0.42-1.97-0.63-2.99c-0.25,0.02-0.46,0.03-0.67,0.06c-1.96,0.25-3.91,0.54-5.87,0.76c-5.02,0.55-10.05,0.75-15.1,0.41
			c-4.14-0.28-8.22-0.89-12.16-2.24c-1.21-0.41-2.38-0.93-3.57-1.39C182.66,847.04,182.46,846.96,182.25,846.87z M329.22,764.89
			c-0.03-0.04-0.06-0.08-0.1-0.12c-0.11-0.13-0.22-0.27-0.32-0.4c-0.02-0.07-0.03-0.13-0.05-0.2c-0.08-0.07-0.16-0.14-0.25-0.21
			c0.06-0.16,0.11-0.31-0.15-0.32c-0.09-0.07-0.18-0.14-0.26-0.21c0.06-0.17,0.06-0.3-0.18-0.28c-0.18-0.13-0.35-0.25-0.53-0.38
			c-0.07-0.15-0.13-0.3-0.2-0.45c-0.76-0.49-1.5-1.01-2.28-1.47c-0.5-0.29-1.05-0.49-1.58-0.73c-0.67-0.3-1.33-0.63-2.03-0.88
			c-3.72-1.3-7.59-1.76-11.49-1.99c-3.21-0.19-6.42-0.1-9.62,0.17c-2.14,0.18-4.28,0.42-6.42,0.67c-0.89,0.1-1.77,0.29-2.67,0.44
			c0.02,0.25,0.03,0.41,0.05,0.57c0.18,1.62,0.38,3.23,0.55,4.85c0.62,6.03,0.89,12.08,0.92,18.14c0,0.43,0.1,0.74,0.45,1.03
			c1.14,0.95,2.26,1.94,3.36,2.94c1.56,1.42,3.14,2.81,4.63,4.3c2.92,2.92,5.78,5.91,8.67,8.86c0.12,0.12,0.27,0.22,0.46,0.37
			c1.37-1.25,2.72-2.46,4.04-3.69c0.56-0.53,1.07-1.11,1.6-1.67c0.17,0.07,0.32,0.1,0.3-0.17c0.13-0.17,0.25-0.35,0.38-0.52
			c0.17,0.07,0.32,0.1,0.3-0.17c0.13-0.18,0.25-0.35,0.38-0.53c0.15-0.06,0.3-0.13,0.45-0.19c0.22-0.27,0.41-0.55,0.65-0.8
			c2.21-2.34,4.29-4.79,6.16-7.41c0.23-0.03,0.32-0.16,0.27-0.39c0.93-1.5,1.86-3,2.8-4.51c0.26-0.07,0.18-0.2,0.06-0.34
			c0.15-0.22,0.3-0.44,0.46-0.67c0.26-0.07,0.18-0.2,0.06-0.34c0.12-0.18,0.24-0.36,0.36-0.54c0.26-0.07,0.18-0.21,0.06-0.34
			c0.04-0.04,0.08-0.09,0.12-0.13c0.27-0.12,0.43-0.29,0.24-0.6c0.06-0.09,0.12-0.19,0.18-0.28c0.22-0.07,0.17-0.19,0.06-0.33
			c0.06-0.1,0.11-0.19,0.17-0.29c0.23-0.08,0.17-0.2,0.06-0.33c0.05-0.1,0.1-0.2,0.15-0.3c0-0.06,0-0.11-0.01-0.17
			c0.05-0.11,0.11-0.21,0.16-0.32c0-0.05-0.01-0.11-0.01-0.16c0.05-0.11,0.1-0.22,0.16-0.32c0-0.05-0.01-0.11-0.01-0.16
			c0.05-0.1,0.1-0.21,0.15-0.31c-0.01-0.06-0.01-0.12-0.02-0.18c0.07-0.22,0.14-0.44,0.21-0.66c-0.01-0.06-0.01-0.12-0.02-0.19
			c0.1-0.91,0.24-1.82,0.27-2.74c0.02-0.78-0.02-1.58-0.16-2.35c-0.11-0.61-0.41-1.18-0.63-1.76c-0.01-0.07-0.03-0.14-0.04-0.21
			c-0.04-0.05-0.07-0.09-0.11-0.14c-0.02-0.06-0.04-0.12-0.05-0.17c-0.04-0.05-0.08-0.09-0.12-0.14
			C329.26,765.01,329.24,764.96,329.22,764.89C329.22,764.9,329.22,764.89,329.22,764.89z M267.66,764.32
			c1.56,1.02,3.15,1.99,4.67,3.06c3.88,2.75,7.73,5.56,11.59,8.34c0.19,0.14,0.36,0.31,0.54,0.47c0.04,0.03,0.09,0.04,0.14,0.01
			c0.01-0.13,0.04-0.26,0.03-0.4c-0.17-5.08-0.58-10.15-1.21-15.2c-0.02-0.17-0.1-0.34-0.21-0.69c-0.43,0.12-0.83,0.24-1.24,0.35
			c-3.55,0.93-7.12,1.85-10.66,2.81c-1.23,0.33-2.43,0.77-3.65,1.17l-0.05,0.04L267.66,764.32z M242.22,836.07
			c0.02-0.05,0.05-0.1,0.07-0.15c-0.87-0.56-1.76-1.1-2.6-1.7c-3.96-2.78-7.92-5.57-11.86-8.37c-0.74-0.52-1.44-1.09-2.16-1.63
			c-0.06-0.03-0.13-0.06-0.19-0.1c0,0.09,0.01,0.17,0.01,0.26c-0.02,0.21-0.06,0.42-0.05,0.63c0.31,4.26,0.63,8.52,0.96,12.77
			c0.06,0.82,0.2,1.63,0.33,2.6c0.39-0.12,0.69-0.22,1-0.29c4.35-0.99,8.66-2.13,12.92-3.45
			C241.19,836.47,241.7,836.26,242.22,836.07z M200.85,789.48c0.08,0.04,0.15,0.08,0.23,0.13c0.16-0.1,0.33-0.18,0.47-0.29
			c6.04-4.6,12.36-8.77,18.92-12.58c0.5-0.29,0.77-0.64,0.88-1.22c1.41-7.53,3.23-14.97,5.56-22.27c0.05-0.14,0.05-0.3,0.09-0.49
			c-0.25-0.1-0.47-0.2-0.69-0.28c-4.64-1.62-9.37-2.94-14.21-3.83c-4.32-0.79-8.67-1.25-13.06-0.87c-2.51,0.22-4.97,0.69-7.26,1.8
			c-3.12,1.52-5.03,3.96-5.56,7.42c-0.36,2.41-0.11,4.79,0.44,7.15c1.03,4.44,2.93,8.52,5.17,12.45c2.28,4.02,4.92,7.81,7.78,11.44
			C199.99,788.53,200.43,788.99,200.85,789.48z M271.77,776.46c-2.77-1.85-5.51-3.71-8.28-5.53c-1.52-1-3.09-1.91-4.61-2.89
			c-0.61-0.39-1.16-0.43-1.86-0.17c-9.63,3.7-18.97,8.02-28.02,12.97c-0.56,0.31-0.78,0.69-0.88,1.29c-1.17,7.33-2,14.7-2.43,22.11
			c-0.17,2.98-0.24,5.97-0.36,8.96c-0.02,0.42,0.04,0.74,0.42,1.04c2.02,1.57,3.98,3.23,6.03,4.76c2.74,2.04,5.53,4.01,8.32,5.98
			c3.71,2.62,7.52,5.08,11.41,7.42c0.41,0.25,0.75,0.29,1.19,0.11c1.9-0.77,3.83-1.5,5.73-2.27c7.76-3.18,15.3-6.82,22.66-10.84
			c0.52-0.28,0.79-0.62,0.87-1.22c0.28-2.12,0.62-4.22,0.91-6.34c1.1-8.15,1.7-16.35,1.9-24.57c0.02-0.67-0.21-1.1-0.7-1.49
			c-1.47-1.15-2.91-2.35-4.39-3.47C277.03,780.34,274.38,778.4,271.77,776.46z M227.97,848.05c0.05,0.35,0.08,0.61,0.13,0.87
			c0.31,1.44,0.6,2.87,0.93,4.3c1.24,5.29,2.83,10.46,5.12,15.4c1.51,3.26,3.33,6.31,5.75,8.99c1.35,1.5,2.89,2.75,4.73,3.59
			c2.15,0.98,4.37,1.05,6.62,0.39c1.27-0.37,2.43-0.97,3.53-1.67c2.25-1.43,4.13-3.28,5.87-5.28c2.52-2.92,4.6-6.16,6.47-9.51
			c1.94-3.47,3.59-7.09,5.09-10.77c0.28-0.69,0.54-1.38,0.83-2.14c-0.31-0.15-0.56-0.29-0.82-0.41c-1.05-0.46-2.12-0.88-3.16-1.37
			c-3.51-1.68-7.03-3.34-10.51-5.09c-2.19-1.1-4.32-2.32-6.46-3.53c-0.53-0.3-0.97-0.39-1.56-0.18c-6.5,2.29-13.09,4.26-19.81,5.81
			C229.83,847.63,228.95,847.83,227.97,848.05z M282.08,752.22c-0.05-0.36-0.08-0.62-0.13-0.88c-0.15-0.76-0.31-1.52-0.47-2.27
			c-1.11-5.15-2.53-10.2-4.55-15.07c-1.47-3.54-3.2-6.93-5.6-9.94c-1.42-1.79-3.01-3.38-5.02-4.51c-2.36-1.32-4.82-1.63-7.41-0.87
			c-2.03,0.59-3.79,1.69-5.43,3c-2.81,2.26-5.09,5.01-7.11,7.97c-1.32,1.93-2.53,3.95-3.67,6c-2.09,3.78-3.85,7.73-5.42,11.76
			c-0.09,0.24-0.15,0.48-0.23,0.73c0.21,0.1,0.32,0.16,0.44,0.21c4.4,1.85,8.74,3.84,12.96,6.07c2.57,1.35,5.13,2.73,7.67,4.14
			c0.5,0.28,0.9,0.28,1.42,0.1c6.5-2.28,13.09-4.25,19.81-5.8C280.22,752.65,281.1,752.45,282.08,752.22z M309.1,810.56
			c-0.23,0.16-0.41,0.27-0.57,0.4c-6.07,4.64-12.44,8.82-19.04,12.67c-0.46,0.27-0.68,0.58-0.78,1.1
			c-1.37,7.43-3.18,14.75-5.44,21.96c-0.09,0.27-0.16,0.55-0.25,0.84c0.15,0.08,0.24,0.14,0.33,0.17c6.19,2.14,12.47,3.89,19,4.61
			c1.98,0.22,3.99,0.3,5.99,0.33c1.27,0.01,2.54-0.21,3.81-0.3c2.48-0.17,4.82-0.83,6.98-2.07c2.41-1.39,3.94-3.46,4.56-6.18
			c0.46-2.01,0.39-4.03,0.07-6.04c-0.64-4.02-2.13-7.76-3.95-11.37c-2.62-5.19-5.87-9.97-9.45-14.53
			C309.95,811.61,309.54,811.1,309.1,810.56z M200.01,800.7c-0.25,0.17-0.41,0.26-0.55,0.38c-3.91,3.45-7.72,7.01-11.01,11.08
			c-1.47,1.83-2.92,3.67-4.19,5.65c-1.25,1.93-2.36,3.93-3.22,6.06c-0.88,2.16-1.49,4.4-1.46,6.76c0.02,1.76,0.41,3.43,1.36,4.94
			c1.33,2.11,3.27,3.47,5.47,4.52c2.38,1.13,4.9,1.79,7.48,2.24c3.91,0.68,7.85,0.86,11.8,0.71c2.31-0.09,4.61-0.33,6.92-0.52
			c0.68-0.06,1.37-0.26,2.04-0.23c1.41,0.04,2.72-0.48,4.09-0.63c0.07-0.01,0.12-0.09,0.19-0.14c-0.01-0.14-0.02-0.27-0.03-0.4
			c-0.24-2.25-0.53-4.51-0.71-6.76c-0.24-2.89-0.43-5.79-0.56-8.69c-0.12-2.5-0.13-5.01-0.18-7.52c-0.01-0.39-0.07-0.71-0.39-0.99
			c-2.1-1.85-4.19-3.7-6.26-5.58c-3.39-3.09-6.6-6.36-9.72-9.73C200.75,801.48,200.4,801.12,200.01,800.7z M303.97,804.58
			c-3.67-4.05-7.47-7.82-11.52-11.38c-0.41,6.89-1.03,13.72-1.96,20.67C295.21,810.95,299.61,807.91,303.97,804.58z M230.32,771.18
			c6.18-3.07,12.38-5.94,18.77-8.56c-1.53-1.16-13.25-6.7-14.73-6.96C232.72,760.73,231.37,765.9,230.32,771.18z M206.17,795.64
			c0.95,1.58,10.45,10.97,11.52,11.4c0.31-6.85,0.95-13.65,1.87-20.62C214.85,789.34,210.45,792.37,206.17,795.64z M275.66,844.75
			c1.68-5.24,3.04-10.41,4.22-15.82c-6.04,3.1-12.02,5.9-18.14,8.42c-0.2,0.08-0.38,0.18-0.57,0.28c-0.02,0.01-0.02,0.05-0.03,0.07
			c0,0.02,0,0.05,0,0.16C265.8,840.35,270.6,842.65,275.66,844.75z"/>
		<path class="st4" d="M241.68,791.18c0.15-0.22,0.31-0.44,0.46-0.65c0.09-0.13,0.19-0.26,0.28-0.39c1.28-1.44,2.65-2.77,4.34-3.74
			c4.88-2.8,9.94-3.13,15.04-0.77c7.99,3.7,11.46,12.96,7.88,21.02c-3.86,8.68-13.64,11.6-21.23,8.14c-0.65-0.3-1.29-0.64-1.93-0.97
			c-0.13-0.09-0.26-0.18-0.4-0.27c-0.22-0.15-0.44-0.31-0.66-0.46c-0.13-0.09-0.26-0.19-0.39-0.28c-1.89-1.61-3.49-3.46-4.53-5.73
			c-2.22-4.85-2.12-9.66,0.3-14.42c0.18-0.36,0.37-0.71,0.55-1.06C241.5,791.44,241.59,791.31,241.68,791.18z"/>
	</g>
	<g>
		<path class="st4" d="M413.71,662.17c-1.75-1.23-3.49-2.46-5.24-3.69c-0.15-0.16-0.29-0.32-0.44-0.49
			c-0.17-0.2-0.34-0.41-0.52-0.61c-1.82-2.09-3.1-4.45-3.78-7.15c-0.81-3.24-0.64-6.46,0.11-9.67c0.89-3.81,2.54-7.3,4.59-10.6
			c2.29-3.67,4.92-7.1,7.85-10.3c2.5-2.73,5.14-5.34,7.91-7.8c0.68-0.6,1.33-1.23,2-1.84c-0.02-0.08-0.04-0.16-0.06-0.24
			c-0.14-0.2-0.27-0.4-0.41-0.59c-1.59-2.14-3.24-4.24-4.78-6.42c-3.02-4.28-5.66-8.79-7.77-13.6c-1.43-3.26-2.49-6.64-3.2-10.12
			c-0.14-0.67-0.15-1.37-0.17-2.06c-0.05-1.28-0.14-2.56-0.08-3.84c0.16-3.57,1.2-6.88,3.32-9.79c2.04-2.81,4.77-4.77,7.97-6.09
			c3.4-1.4,6.97-2,10.62-2.14c5.12-0.2,10.16,0.39,15.16,1.44c4.6,0.96,9.12,2.24,13.55,3.79c0.22,0.08,0.45,0.12,0.74,0.2
			c0.13-0.27,0.25-0.5,0.35-0.74c0.47-1.13,0.91-2.28,1.39-3.41c1.92-4.52,4.04-8.94,6.67-13.09c2.13-3.36,4.42-6.61,7.22-9.46
			c2.33-2.37,4.87-4.48,7.85-5.99c5.34-2.7,10.73-2.95,16.18-0.34c1.75,1.24,3.5,2.47,5.24,3.71c1.38,1.34,2.64,2.78,3.78,4.34
			c2.63,3.6,4.61,7.55,6.24,11.68c2,5.05,3.47,10.25,4.59,15.56c0.22,1.06,0.45,2.13,0.69,3.23c0.32-0.04,0.59-0.05,0.84-0.1
			c0.6-0.11,1.19-0.28,1.8-0.35c1.32-0.16,2.65-0.26,3.97-0.39c5.21-0.54,10.43-0.75,15.65-0.35c3.98,0.3,7.89,0.93,11.67,2.25
			c1.28,0.45,2.52,1.01,3.78,1.51c0.13,0.08,0.27,0.17,0.4,0.25c1.67,1.17,3.33,2.35,5,3.52c1.74,1.69,3.1,3.64,4.04,5.87
			c1.26,3,1.55,6.13,1.16,9.34c-0.56,4.59-2.39,8.71-4.69,12.64c-0.94,1.61-2.03,3.13-3.05,4.69c-0.09,0.13-0.19,0.26-0.28,0.39
			c-1.89,2.25-3.78,4.51-5.67,6.76c-0.22,0.24-0.44,0.48-0.65,0.72c-0.04,0.04-0.08,0.07-0.12,0.11c-0.04,0.03-0.09,0.06-0.13,0.1
			c-2.61,2.65-5.27,5.27-8.14,7.65c-0.07,0.06-0.1,0.18-0.18,0.3c0.54,0.69,1.09,1.38,1.62,2.07c3.5,4.5,6.66,9.22,9.36,14.25
			c0.22,0.42,0.45,0.83,0.68,1.25c0.06,0.11,0.11,0.21,0.17,0.32c0.07,0.17,0.13,0.35,0.2,0.52c0.9,2.19,1.84,4.35,2.68,6.56
			c0.47,1.24,0.77,2.54,1.15,3.81c0.21,1.2,0.41,2.41,0.62,3.61c0.04,1.27,0.12,2.55,0.1,3.82c-0.04,2.86-0.74,5.57-1.96,8.15
			c-0.04,0.09-0.08,0.19-0.13,0.28c-0.17,0.28-0.33,0.55-0.5,0.83c-0.14,0.19-0.3,0.38-0.43,0.58c-1.83,2.76-4.33,4.74-7.31,6.15
			c-3.4,1.61-7.02,2.32-10.75,2.54c-4.28,0.26-8.51-0.12-12.73-0.81c-4.38-0.71-8.66-1.78-12.89-3.08
			c-1.53-0.47-3.05-0.97-4.57-1.45c-0.06,0.01-0.12,0.03-0.18,0.04c-0.07,0.14-0.15,0.28-0.21,0.43c-0.98,2.3-1.93,4.62-2.95,6.91
			c-1.75,3.92-3.82,7.69-6.15,11.3c-1.93,2.99-4.11,5.78-6.61,8.31c-2.38,2.4-5,4.48-8.08,5.94c-4.83,2.28-9.74,2.59-14.71,0.47
			c-0.24-0.1-0.5-0.15-0.75-0.22c-1.79-1.26-3.58-2.52-5.37-3.78c-0.19-0.2-0.38-0.39-0.57-0.59c-0.1-0.13-0.19-0.26-0.29-0.38
			c-0.95-1.12-1.96-2.19-2.83-3.36c-2.71-3.61-4.69-7.62-6.35-11.8c-2.04-5.12-3.51-10.41-4.64-15.79
			c-0.21-0.99-0.42-1.97-0.63-2.99c-0.25,0.02-0.46,0.03-0.67,0.06c-1.96,0.25-3.91,0.54-5.87,0.76c-5.02,0.55-10.05,0.75-15.1,0.41
			c-4.14-0.28-8.22-0.89-12.16-2.24c-1.21-0.41-2.38-0.93-3.57-1.39C414.12,662.34,413.91,662.26,413.71,662.17z M560.67,580.19
			c-0.03-0.04-0.06-0.08-0.1-0.12c-0.11-0.13-0.22-0.27-0.32-0.4c-0.02-0.07-0.03-0.13-0.05-0.2c-0.08-0.07-0.16-0.14-0.25-0.21
			c0.06-0.16,0.11-0.31-0.15-0.32c-0.09-0.07-0.18-0.14-0.26-0.21c0.06-0.17,0.06-0.3-0.18-0.28c-0.18-0.13-0.35-0.25-0.53-0.38
			c-0.07-0.15-0.13-0.3-0.2-0.45c-0.76-0.49-1.5-1.01-2.28-1.47c-0.5-0.29-1.05-0.49-1.58-0.73c-0.67-0.3-1.33-0.63-2.03-0.88
			c-3.72-1.3-7.59-1.76-11.49-1.99c-3.21-0.19-6.42-0.1-9.62,0.17c-2.14,0.18-4.28,0.42-6.42,0.67c-0.89,0.1-1.77,0.29-2.67,0.44
			c0.02,0.25,0.03,0.41,0.05,0.57c0.18,1.62,0.38,3.23,0.55,4.85c0.62,6.03,0.89,12.08,0.92,18.14c0,0.43,0.1,0.74,0.45,1.03
			c1.14,0.95,2.26,1.94,3.36,2.94c1.56,1.42,3.14,2.81,4.63,4.3c2.92,2.92,5.78,5.91,8.67,8.86c0.12,0.12,0.27,0.22,0.46,0.37
			c1.37-1.25,2.72-2.46,4.04-3.69c0.56-0.53,1.07-1.11,1.6-1.67c0.17,0.07,0.32,0.1,0.3-0.17c0.13-0.17,0.25-0.35,0.38-0.52
			c0.17,0.07,0.32,0.1,0.3-0.17c0.13-0.18,0.25-0.35,0.38-0.53c0.15-0.06,0.3-0.13,0.45-0.19c0.22-0.27,0.41-0.55,0.65-0.8
			c2.21-2.34,4.29-4.79,6.16-7.41c0.23-0.03,0.32-0.16,0.27-0.39c0.93-1.5,1.86-3,2.79-4.51c0.26-0.07,0.18-0.2,0.06-0.34
			c0.15-0.22,0.3-0.44,0.46-0.67c0.26-0.07,0.18-0.2,0.06-0.34c0.12-0.18,0.24-0.36,0.36-0.54c0.26-0.07,0.18-0.21,0.06-0.34
			c0.04-0.04,0.08-0.09,0.12-0.13c0.27-0.12,0.43-0.29,0.24-0.6c0.06-0.09,0.12-0.19,0.18-0.28c0.22-0.07,0.17-0.19,0.06-0.33
			c0.06-0.1,0.11-0.19,0.17-0.29c0.23-0.08,0.17-0.2,0.06-0.33c0.05-0.1,0.1-0.2,0.15-0.3c0-0.06,0-0.11-0.01-0.17
			c0.05-0.11,0.11-0.21,0.16-0.32c0-0.05-0.01-0.11-0.01-0.16c0.05-0.11,0.1-0.22,0.16-0.32c0-0.05-0.01-0.11-0.01-0.16
			c0.05-0.1,0.1-0.21,0.15-0.31c-0.01-0.06-0.01-0.12-0.02-0.18c0.07-0.22,0.14-0.44,0.21-0.66c-0.01-0.06-0.01-0.12-0.02-0.19
			c0.1-0.91,0.24-1.82,0.27-2.74c0.02-0.78-0.02-1.58-0.16-2.35c-0.11-0.61-0.41-1.18-0.63-1.76c-0.01-0.07-0.03-0.14-0.04-0.21
			c-0.04-0.05-0.07-0.09-0.11-0.14c-0.02-0.06-0.04-0.12-0.05-0.17c-0.04-0.05-0.08-0.09-0.12-0.14
			C560.71,580.31,560.69,580.25,560.67,580.19C560.67,580.2,560.67,580.19,560.67,580.19z M499.12,579.61
			c1.56,1.02,3.15,1.99,4.67,3.06c3.88,2.75,7.73,5.56,11.59,8.34c0.19,0.14,0.36,0.31,0.54,0.47c0.04,0.03,0.09,0.04,0.14,0.01
			c0.01-0.13,0.04-0.26,0.03-0.4c-0.17-5.08-0.58-10.15-1.21-15.2c-0.02-0.17-0.1-0.34-0.21-0.69c-0.43,0.12-0.83,0.24-1.24,0.35
			c-3.55,0.93-7.12,1.85-10.66,2.81c-1.23,0.33-2.43,0.77-3.65,1.17l-0.05,0.04L499.12,579.61z M473.68,651.36
			c0.02-0.05,0.05-0.1,0.07-0.15c-0.87-0.56-1.76-1.1-2.6-1.7c-3.96-2.78-7.92-5.57-11.86-8.37c-0.74-0.52-1.44-1.09-2.16-1.63
			c-0.06-0.03-0.13-0.06-0.19-0.1c0,0.09,0.01,0.17,0.01,0.26c-0.02,0.21-0.06,0.42-0.05,0.63c0.31,4.26,0.63,8.52,0.96,12.77
			c0.06,0.82,0.2,1.63,0.33,2.6c0.39-0.12,0.69-0.22,1-0.29c4.35-0.99,8.66-2.13,12.92-3.45
			C472.64,651.77,473.16,651.56,473.68,651.36z M432.31,604.78c0.08,0.04,0.15,0.08,0.23,0.13c0.16-0.1,0.33-0.18,0.47-0.29
			c6.04-4.6,12.36-8.77,18.92-12.58c0.5-0.29,0.77-0.64,0.88-1.22c1.41-7.53,3.23-14.97,5.56-22.27c0.05-0.14,0.05-0.3,0.09-0.49
			c-0.25-0.1-0.47-0.2-0.69-0.28c-4.64-1.62-9.37-2.94-14.21-3.83c-4.32-0.79-8.67-1.25-13.06-0.87c-2.51,0.22-4.97,0.69-7.26,1.8
			c-3.12,1.52-5.03,3.96-5.56,7.42c-0.36,2.41-0.11,4.79,0.44,7.15c1.03,4.44,2.93,8.52,5.17,12.45c2.28,4.02,4.92,7.81,7.78,11.44
			C431.45,603.83,431.89,604.29,432.31,604.78z M503.22,591.76c-2.77-1.85-5.51-3.71-8.28-5.53c-1.52-1-3.09-1.91-4.61-2.89
			c-0.61-0.39-1.16-0.43-1.86-0.17c-9.63,3.7-18.97,8.02-28.02,12.97c-0.56,0.31-0.78,0.69-0.88,1.29c-1.17,7.33-2,14.7-2.43,22.11
			c-0.17,2.98-0.24,5.97-0.36,8.96c-0.02,0.42,0.04,0.74,0.42,1.04c2.02,1.57,3.98,3.23,6.03,4.76c2.74,2.04,5.53,4.01,8.32,5.98
			c3.71,2.62,7.52,5.08,11.41,7.42c0.41,0.25,0.75,0.29,1.19,0.11c1.9-0.77,3.83-1.5,5.73-2.27c7.76-3.18,15.3-6.82,22.66-10.84
			c0.52-0.28,0.79-0.62,0.87-1.22c0.28-2.12,0.62-4.22,0.91-6.34c1.1-8.15,1.7-16.35,1.9-24.57c0.02-0.67-0.21-1.1-0.7-1.49
			c-1.47-1.15-2.91-2.35-4.39-3.47C508.49,595.64,505.84,593.7,503.22,591.76z M459.43,663.35c0.05,0.35,0.08,0.61,0.13,0.87
			c0.31,1.44,0.6,2.87,0.93,4.3c1.24,5.29,2.83,10.46,5.12,15.4c1.51,3.26,3.33,6.31,5.75,8.99c1.35,1.5,2.89,2.75,4.73,3.59
			c2.15,0.98,4.37,1.05,6.62,0.39c1.27-0.37,2.43-0.97,3.53-1.67c2.25-1.43,4.13-3.28,5.87-5.28c2.52-2.92,4.6-6.16,6.47-9.51
			c1.94-3.47,3.59-7.09,5.09-10.77c0.28-0.69,0.54-1.38,0.83-2.14c-0.31-0.15-0.56-0.29-0.82-0.41c-1.05-0.46-2.12-0.88-3.16-1.37
			c-3.51-1.68-7.03-3.34-10.51-5.09c-2.19-1.1-4.32-2.32-6.46-3.53c-0.53-0.3-0.97-0.39-1.56-0.18c-6.5,2.29-13.09,4.26-19.81,5.81
			C461.29,662.93,460.41,663.13,459.43,663.35z M513.54,567.52c-0.05-0.36-0.08-0.62-0.13-0.88c-0.15-0.76-0.31-1.52-0.47-2.27
			c-1.11-5.15-2.53-10.2-4.55-15.07c-1.47-3.54-3.2-6.93-5.6-9.94c-1.42-1.79-3.01-3.38-5.02-4.51c-2.36-1.32-4.82-1.63-7.41-0.87
			c-2.03,0.59-3.79,1.69-5.43,3c-2.81,2.26-5.09,5.01-7.11,7.97c-1.32,1.93-2.53,3.95-3.67,6c-2.09,3.78-3.85,7.73-5.42,11.76
			c-0.09,0.24-0.15,0.48-0.23,0.73c0.21,0.1,0.32,0.16,0.44,0.21c4.4,1.85,8.74,3.84,12.96,6.07c2.57,1.35,5.13,2.73,7.67,4.14
			c0.5,0.28,0.9,0.28,1.42,0.1c6.5-2.28,13.09-4.25,19.81-5.8C511.68,567.95,512.56,567.75,513.54,567.52z M540.56,625.86
			c-0.23,0.16-0.41,0.27-0.57,0.4c-6.07,4.64-12.44,8.82-19.04,12.67c-0.46,0.27-0.68,0.58-0.78,1.1
			c-1.37,7.43-3.18,14.75-5.44,21.96c-0.09,0.27-0.16,0.55-0.25,0.84c0.15,0.08,0.24,0.14,0.33,0.17c6.19,2.14,12.47,3.89,19,4.61
			c1.98,0.22,3.99,0.3,5.99,0.33c1.27,0.01,2.54-0.21,3.81-0.3c2.48-0.17,4.82-0.83,6.98-2.07c2.41-1.39,3.94-3.46,4.56-6.18
			c0.46-2.01,0.39-4.03,0.07-6.04c-0.64-4.02-2.13-7.76-3.95-11.37c-2.62-5.19-5.87-9.97-9.45-14.53
			C541.41,626.91,541,626.4,540.56,625.86z M431.47,616c-0.25,0.17-0.41,0.26-0.55,0.38c-3.91,3.45-7.72,7.01-11.01,11.08
			c-1.47,1.83-2.92,3.67-4.19,5.65c-1.25,1.93-2.36,3.93-3.22,6.06c-0.88,2.16-1.49,4.4-1.46,6.76c0.02,1.76,0.41,3.43,1.36,4.94
			c1.33,2.11,3.27,3.47,5.47,4.52c2.38,1.13,4.9,1.79,7.48,2.24c3.91,0.68,7.85,0.86,11.8,0.71c2.31-0.09,4.61-0.33,6.92-0.52
			c0.68-0.06,1.37-0.26,2.04-0.23c1.41,0.04,2.72-0.48,4.09-0.63c0.07-0.01,0.12-0.09,0.19-0.14c-0.01-0.14-0.02-0.27-0.03-0.4
			c-0.24-2.25-0.53-4.51-0.71-6.76c-0.24-2.89-0.43-5.79-0.56-8.69c-0.12-2.5-0.13-5.01-0.18-7.52c-0.01-0.39-0.07-0.71-0.39-0.99
			c-2.1-1.85-4.19-3.7-6.26-5.58c-3.39-3.09-6.6-6.36-9.72-9.73C432.21,616.78,431.86,616.41,431.47,616z M535.43,619.88
			c-3.67-4.05-7.47-7.82-11.52-11.38c-0.41,6.89-1.03,13.72-1.96,20.67C526.67,626.25,531.07,623.21,535.43,619.88z M461.77,586.48
			c6.18-3.07,12.38-5.94,18.77-8.56c-1.53-1.16-13.25-6.7-14.73-6.96C464.18,576.03,462.83,581.19,461.77,586.48z M437.63,610.94
			c0.95,1.58,10.45,10.97,11.52,11.4c0.31-6.85,0.95-13.65,1.87-20.62C446.3,604.63,441.91,607.67,437.63,610.94z M507.12,660.05
			c1.68-5.24,3.04-10.41,4.22-15.82c-6.04,3.1-12.02,5.9-18.14,8.42c-0.2,0.08-0.38,0.18-0.57,0.28c-0.02,0.01-0.02,0.05-0.03,0.07
			c0,0.02,0,0.05,0,0.16C497.26,655.65,502.05,657.95,507.12,660.05z"/>
		<path class="st4" d="M473.13,606.48c0.15-0.22,0.31-0.44,0.46-0.65c0.09-0.13,0.19-0.26,0.28-0.39c1.28-1.44,2.65-2.77,4.34-3.74
			c4.88-2.8,9.94-3.13,15.04-0.77c7.99,3.7,11.46,12.96,7.88,21.02c-3.86,8.68-13.64,11.6-21.23,8.14c-0.65-0.3-1.29-0.64-1.93-0.96
			c-0.13-0.09-0.26-0.18-0.4-0.27c-0.22-0.15-0.44-0.31-0.66-0.46c-0.13-0.09-0.26-0.19-0.39-0.28c-1.89-1.61-3.49-3.46-4.53-5.73
			c-2.22-4.85-2.12-9.66,0.3-14.42c0.18-0.36,0.37-0.71,0.55-1.06C472.96,606.74,473.05,606.61,473.13,606.48z"/>
	</g>
	<circle class="st5" cx="403.2" cy="287.66" r="31.96"/>
	<circle class="st5" cx="217.01" cy="603.37" r="22.6"/>
	<circle class="st5" cx="653.83" cy="562.53" r="28.89"/>
	<circle class="st5" cx="409.77" cy="778.39" r="18.34"/>
</g>
</svg>
